<svg width="15" height="14" viewBox="0 0 15 14" fill="none" xmlns="http://www.w3.org/2000/svg">
<path d="M7.35765 0C3.64767 0 0.640331 3.00734 0.640331 6.71732C0.640331 10.4273 3.64767 13.4346 7.35765 13.4346C11.0676 13.4346 14.075 10.4273 14.075 6.71732C14.075 3.00734 11.0676 0 7.35765 0ZM7.35765 0.973339C8.82101 0.973339 10.1568 1.5208 11.1711 2.42159C10.4258 3.40467 9.29358 4.05927 8.15902 4.50228C7.51676 3.33258 6.79696 2.20715 6.00444 1.13355C6.44768 1.02671 6.90205 0.972928 7.35798 0.973339H7.35765ZM4.91389 1.51744C5.66287 2.63789 6.38834 3.67672 7.051 4.85259C5.37503 5.28686 3.48108 5.5475 1.73156 5.55186C2.10034 3.76237 3.3024 2.2765 4.91389 1.51778V1.51744ZM11.8082 3.08593C12.6382 4.10023 13.0948 5.36876 13.1016 6.67936C11.7729 6.41739 10.4516 6.34887 9.10616 6.48456C8.95502 6.10738 8.77164 5.74901 8.59598 5.36277C9.75573 4.89491 10.9957 4.0942 11.8082 3.0856V3.08593ZM7.51752 5.74129C7.66127 6.04693 7.82786 6.37137 7.98437 6.70287C6.1136 7.52776 4.1236 8.63007 3.09081 10.5626C2.09933 9.46546 1.57095 8.02714 1.61636 6.54905C3.6198 6.53964 5.58629 6.28909 7.51752 5.74129V5.74129ZM10.5531 7.30743C11.389 7.30761 12.2214 7.41484 13.0301 7.6265C12.9054 8.40445 12.622 9.14842 12.1975 9.81215C11.773 10.4759 11.2164 11.0452 10.5625 11.4846C10.2542 10.0824 9.96027 8.74057 9.44069 7.3877C9.80894 7.33404 10.1806 7.3071 10.5527 7.3071L10.5531 7.30743ZM13.06 7.41155C13.0559 7.44447 13.0523 7.47671 13.0476 7.50895C13.0523 7.47637 13.0563 7.44413 13.06 7.41155ZM8.37801 7.65002C8.90733 9.018 9.3228 10.5328 9.60157 12.0069C8.89195 12.308 8.12883 12.4626 7.35798 12.4616C6.08097 12.4635 4.84009 12.0378 3.83307 11.2525C4.87325 9.56512 6.4844 8.28816 8.37767 7.65035L8.37801 7.65002Z" fill="#A1C2D1"/>
</svg>
