<svg width="15" height="14" viewBox="0 0 15 14" fill="none" xmlns="http://www.w3.org/2000/svg">
<g clip-path="url(#clip0_325_5)">
<path d="M10.674 8.05112C10.5056 7.9659 9.68567 7.5658 9.53243 7.5087C9.3792 7.45412 9.26794 7.42557 9.15626 7.59393C9.04711 7.75808 8.72552 8.13383 8.62728 8.24341C8.52904 8.35298 8.43247 8.36138 8.26664 8.28707C8.09829 8.20184 7.56048 8.02677 6.92192 7.45412C6.42316 7.01036 6.09107 6.46374 5.99241 6.29538C5.89417 6.12913 5.98149 6.03509 6.06462 5.95196C6.14103 5.87555 6.23297 5.75968 6.3182 5.65892C6.39923 5.55816 6.42526 5.49057 6.48445 5.38141C6.53903 5.26344 6.5109 5.17149 6.46934 5.08837C6.42777 5.00524 6.09317 4.18111 5.95336 3.8528C5.81986 3.52701 5.68005 3.56857 5.57719 3.56857C5.48105 3.55976 5.36938 3.55976 5.25812 3.55976C5.14687 3.55976 4.96508 3.60132 4.81184 3.76086C4.6586 3.92921 4.22575 4.33141 4.22575 5.14504C4.22575 5.96078 4.82486 6.75006 4.90798 6.86804C4.99321 6.97719 6.08645 8.65652 7.76368 9.37821C8.16378 9.54657 8.47446 9.64733 8.71712 9.73045C9.11722 9.85724 9.48247 9.83961 9.7709 9.79805C10.09 9.74557 10.7592 9.39333 10.8994 8.99994C11.0417 8.60404 11.0417 8.27615 11.0002 8.20184C10.9586 8.12543 10.8494 8.08387 10.6811 8.00956L10.674 8.05112ZM7.63227 12.1751H7.62346C6.63055 12.1751 5.64899 11.906 4.79169 11.4031L4.59059 11.283L2.49143 11.8296L3.05568 9.78713L2.92008 9.57721C2.36567 8.69571 2.07155 7.67554 2.0716 6.63419C2.0716 3.58621 4.56666 1.09996 7.63647 1.09996C9.12352 1.09996 10.5186 1.67933 11.5682 2.72891C12.086 3.24051 12.4967 3.85011 12.7763 4.52212C13.056 5.19414 13.1991 5.91512 13.1972 6.64301C13.193 9.68889 10.7 12.1751 7.63437 12.1751H7.63227ZM12.3663 1.93081C11.0892 0.697341 9.40984 0 7.62346 0C3.93901 0 0.938888 2.98711 0.936789 6.65812C0.936789 7.83029 1.24285 8.97391 1.82893 9.98613L0.880112 13.4346L4.42685 12.5097C5.40939 13.0395 6.50764 13.3181 7.62388 13.3209H7.62598C11.3125 13.3209 14.3126 10.3338 14.3147 6.66022C14.3147 4.88265 13.6216 3.20962 12.3579 1.95222L12.3663 1.93081Z" fill="#A1C2D1"/>
</g>
<defs>
<clipPath id="clip0_325_5">
<rect width="13.4346" height="13.4346" fill="white" transform="translate(0.880112)"/>
</clipPath>
</defs>
</svg>
