<svg width="14" height="11" viewBox="0 0 14 11" fill="none" xmlns="http://www.w3.org/2000/svg">
<path d="M12.652 9.53957H11.3041V3.61335L7.26022 6.15315L3.21635 3.61335V9.53957H1.8684V1.41218H2.67717L7.26022 4.29063L11.8433 1.41218H12.652V9.53957ZM12.652 0.0576172H1.8684C1.12028 0.0576172 0.520439 0.660398 0.520439 1.41218V9.53957C0.520439 9.89882 0.662456 10.2434 0.915246 10.4974C1.16804 10.7514 1.5109 10.8941 1.8684 10.8941H12.652C13.0095 10.8941 13.3524 10.7514 13.6052 10.4974C13.858 10.2434 14 9.89882 14 9.53957V1.41218C14 1.05293 13.858 0.70839 13.6052 0.45436C13.3524 0.20033 13.0095 0.0576172 12.652 0.0576172Z" fill="#A1C2D1"/>
</svg>
