<svg width="15" height="14" viewBox="0 0 15 14" fill="none" xmlns="http://www.w3.org/2000/svg">
<path fill-rule="evenodd" clip-rule="evenodd" d="M7.47754 0C5.65311 0 5.42472 0.00806074 4.70799 0.0403039C3.99326 0.0732187 3.50491 0.186741 3.07769 0.352659C2.6293 0.521159 2.22308 0.785477 1.88739 1.12717C1.54571 1.46288 1.2814 1.86909 1.11288 2.31747C0.946961 2.7447 0.833438 3.23304 0.800523 3.94777C0.767609 4.6645 0.76022 4.89289 0.76022 6.71732C0.76022 8.54174 0.767609 8.77013 0.800523 9.48687C0.833438 10.2016 0.946961 10.6899 1.11288 11.1172C1.28142 11.5655 1.54573 11.9717 1.88739 12.3075C2.22311 12.6491 2.62932 12.9134 3.07769 13.082C3.50491 13.2479 3.99326 13.3614 4.70799 13.3943C5.42472 13.4266 5.65311 13.4346 7.47754 13.4346C9.30196 13.4346 9.53035 13.4266 10.2471 13.3943C10.9618 13.3614 11.4502 13.2479 11.8774 13.082C12.3258 12.9135 12.732 12.6491 13.0677 12.3075C13.4094 11.9718 13.6737 11.5655 13.8422 11.1172C14.0081 10.6899 14.1216 10.2016 14.1545 9.48687C14.1868 8.77013 14.1949 8.54174 14.1949 6.71732C14.1949 4.89289 14.1868 4.6645 14.1545 3.94777C14.1216 3.23304 14.0081 2.7447 13.8422 2.31747C13.6737 1.86909 13.4094 1.46288 13.0677 1.12717C12.732 0.785477 12.3258 0.521159 11.8774 0.352659C11.4502 0.186741 10.9618 0.0732187 10.2471 0.0403039C9.53035 0.00806074 9.30196 0 7.47754 0ZM7.47754 1.21046C9.27106 1.21046 9.48333 1.21718 10.1913 1.24942C10.8469 1.27965 11.2023 1.38847 11.4394 1.4805C11.7524 1.60275 11.9768 1.74852 12.2119 1.98295C12.447 2.21806 12.5921 2.44242 12.7144 2.75544C12.8057 2.99256 12.9159 3.34791 12.9454 4.00285C12.9777 4.71153 12.9844 4.92312 12.9844 6.71732C12.9844 8.51084 12.9777 8.72311 12.9454 9.43111C12.9152 10.0867 12.8057 10.4421 12.7144 10.6792C12.6067 10.971 12.435 11.2349 12.2119 11.4517C11.9768 11.6868 11.7524 11.8319 11.4394 11.9541C11.2023 12.0455 10.8469 12.1557 10.192 12.1852C9.484 12.2175 9.27173 12.2242 7.47754 12.2242C5.68401 12.2242 5.47107 12.2175 4.76374 12.1852C4.10813 12.155 3.75278 12.0455 3.51566 11.9541C3.22385 11.8465 2.95988 11.6748 2.74317 11.4517C2.52006 11.235 2.34837 10.971 2.24072 10.6792C2.14869 10.4421 2.0392 10.0867 2.00964 9.43178C1.9774 8.72311 1.97068 8.51151 1.97068 6.71732C1.97068 4.92379 1.9774 4.71153 2.00964 4.00352C2.03987 3.34791 2.14869 2.99256 2.24072 2.75544C2.36297 2.44242 2.50874 2.21806 2.74317 1.98295C2.97828 1.74785 3.20264 1.60275 3.51566 1.4805C3.75278 1.38847 4.10813 1.27898 4.76307 1.24942C5.47175 1.21718 5.68334 1.21046 7.47754 1.21046ZM7.47754 8.9562C6.88375 8.9562 6.31428 8.72032 5.89441 8.30044C5.47454 7.88057 5.23865 7.3111 5.23865 6.71732C5.23865 6.12353 5.47454 5.55406 5.89441 5.13419C6.31428 4.71432 6.88375 4.47843 7.47754 4.47843C8.07132 4.47843 8.64079 4.71432 9.06066 5.13419C9.48054 5.55406 9.71642 6.12353 9.71642 6.71732C9.71642 7.3111 9.48054 7.88057 9.06066 8.30044C8.64079 8.72032 8.07132 8.9562 7.47754 8.9562ZM7.47754 3.26797C7.02456 3.26797 6.57602 3.35719 6.15753 3.53054C5.73904 3.70389 5.35878 3.95796 5.03848 4.27826C4.71818 4.59856 4.4641 4.97882 4.29076 5.39731C4.11741 5.8158 4.02819 6.26434 4.02819 6.71732C4.02819 7.17029 4.11741 7.61883 4.29076 8.03732C4.4641 8.45582 4.71818 8.83607 5.03848 9.15637C5.35878 9.47667 5.73904 9.73075 6.15753 9.90409C6.57602 10.0774 7.02456 10.1667 7.47754 10.1667C8.39236 10.1667 9.26971 9.80325 9.91659 9.15637C10.5635 8.50949 10.9269 7.63214 10.9269 6.71732C10.9269 5.80249 10.5635 4.92514 9.91659 4.27826C9.26971 3.63139 8.39236 3.26797 7.47754 3.26797ZM11.8693 3.13161C11.8693 3.23747 11.8485 3.34229 11.808 3.44009C11.7674 3.53788 11.7081 3.62674 11.6332 3.7016C11.5584 3.77645 11.4695 3.83582 11.3717 3.87633C11.2739 3.91684 11.1691 3.93769 11.0632 3.93769C10.9574 3.93769 10.8526 3.91684 10.7548 3.87633C10.657 3.83582 10.5681 3.77645 10.4933 3.7016C10.4184 3.62674 10.359 3.53788 10.3185 3.44009C10.278 3.34229 10.2572 3.23747 10.2572 3.13161C10.2572 2.91783 10.3421 2.7128 10.4933 2.56163C10.6444 2.41046 10.8495 2.32553 11.0632 2.32553C11.277 2.32553 11.4821 2.41046 11.6332 2.56163C11.7844 2.7128 11.8693 2.91783 11.8693 3.13161Z" fill="#A1C2D1"/>
</svg>
