<svg width="14" height="14" viewBox="0 0 14 14" fill="none" xmlns="http://www.w3.org/2000/svg">
<path d="M6.71776 12.0925C8.14308 12.0925 9.51004 11.5262 10.5179 10.5184C11.5258 9.51052 12.092 8.14357 12.092 6.71825C12.092 5.29292 11.5258 3.92597 10.5179 2.91811C9.51004 1.91025 8.14308 1.34404 6.71776 1.34404C5.29243 1.34404 3.92548 1.91025 2.91762 2.91811C1.90976 3.92597 1.34355 5.29292 1.34355 6.71825C1.34355 8.14357 1.90976 9.51052 2.91762 10.5184C3.92548 11.5262 5.29243 12.0925 6.71776 12.0925ZM6.71776 13.436C3.00754 13.436 0 10.4285 0 6.71825C0 3.00803 3.00754 0.000488281 6.71776 0.000488281C10.428 0.000488281 13.4355 3.00803 13.4355 6.71825C13.4355 10.4285 10.428 13.436 6.71776 13.436ZM4.62853 7.50422L2.95044 6.98091C2.58768 6.87007 2.58566 6.62017 3.03172 6.4408L9.57012 3.91493C9.94967 3.76042 10.1646 3.9559 10.0417 4.44563L8.92857 9.69891C8.85065 10.0731 8.6256 10.1624 8.31322 9.98979L6.59952 8.72148L5.80078 9.49268C5.71883 9.57195 5.65232 9.6398 5.52603 9.65659C5.4004 9.67406 5.29695 9.63644 5.22104 9.42819L4.6366 7.49952L4.62853 7.50489V7.50422Z" fill="#A1C2D1"/>
</svg>
